<svg xmlns="http://www.w3.org/2000/svg" xmlns:xlink="http://www.w3.org/1999/xlink" width="500" zoomAndPan="magnify" viewBox="0 0 375 187.499995" height="250" preserveAspectRatio="xMidYMid meet" version="1.0"><defs><clipPath id="572218ec0c"><path d="M 100 88 L 372.902344 88 L 372.902344 187 L 100 187 Z M 100 88 " clip-rule="nonzero"/></clipPath></defs><path fill="white" d="M 144.039062 111.402344 L 138.644531 113.105469 L 139.511719 115.855469 L 144.90625 114.152344 Z M 155.425781 107.8125 L 150.03125 109.511719 L 150.898438 112.261719 L 156.292969 110.5625 Z M 178.195312 100.628906 L 172.800781 102.332031 L 173.667969 105.078125 L 179.0625 103.378906 Z M 166.808594 104.222656 L 161.417969 105.921875 L 162.28125 108.671875 L 167.675781 106.96875 Z M 90.832031 125.753906 L 47.390625 136.207031 C 47.390625 136.207031 51.839844 138.691406 72.714844 137.75 C 93.585938 136.808594 112.0625 128.585938 112.0625 128.585938 C 112.0625 128.585938 104.203125 125.796875 90.832031 125.753906 Z M 109.671875 126.996094 L 164.691406 117.058594 L 82.191406 139.871094 L 94.449219 144.457031 C 97.136719 145.460938 100.039062 145.726562 102.863281 145.226562 L 110.09375 143.941406 C 111.3125 142.917969 112.546875 142.0625 113.789062 141.390625 C 119.941406 137.605469 127.011719 135.4375 134.25 135.125 C 134.589844 135.109375 134.933594 135.105469 135.273438 135.101562 L 135.496094 135.101562 C 136.070312 135.054688 136.648438 135.019531 137.222656 134.992188 C 138.023438 134.960938 138.835938 134.941406 139.632812 134.941406 C 142.097656 134.941406 144.546875 135.117188 146.976562 135.445312 C 159.265625 132.328125 174.859375 128.359375 191.601562 124.097656 C 194.59375 116.625 199.21875 109.828125 205.207031 104.265625 C 206.421875 103.136719 207.6875 102.066406 208.996094 101.058594 Z M 253.363281 79.941406 L 258.757812 78.242188 L 257.890625 75.492188 L 252.496094 77.191406 Z M 259.441406 86.375 L 242.375 78.921875 L 311.320312 53.996094 C 302.640625 52.878906 291.332031 53.714844 276.800781 58.535156 C 264.597656 62.582031 249.050781 67.734375 232.371094 73.269531 L 167.144531 55.46875 C 163.324219 54.425781 159.28125 54.480469 155.492188 55.628906 L 137.566406 61.054688 L 191.867188 86.714844 C 149.875 100.65625 111.640625 113.375 110.148438 113.964844 C 105.660156 113.941406 101.53125 111.496094 99.359375 107.566406 L 83.027344 78.078125 L 74.023438 81.308594 L 79.734375 124.226562 C 84 123.898438 89.027344 123.683594 93.5625 123.539062 L 200.089844 90.648438 L 212.761719 98.390625 C 220.890625 93.144531 230.328125 90.105469 240.105469 89.679688 C 240.902344 89.644531 241.710938 89.628906 242.511719 89.628906 C 254.191406 89.628906 265.671875 93.433594 275.054688 100.378906 C 285.640625 91.925781 298.367188 87.160156 311.984375 86.570312 C 312.914062 86.53125 313.855469 86.507812 314.785156 86.507812 C 316.199219 86.507812 317.605469 86.566406 319.003906 86.660156 C 324.214844 82.902344 327.679688 78.949219 329.96875 75.238281 C 330.742188 73.988281 331.371094 72.65625 331.863281 71.277344 Z M 287.519531 69.167969 L 292.910156 67.464844 L 292.046875 64.71875 L 286.652344 66.417969 Z M 327.75 62.605469 C 327.75 62.605469 318.308594 54.800781 314.875 56.953125 C 311.441406 59.109375 295.507812 64.929688 295.507812 64.929688 Z M 276.132812 72.757812 L 281.527344 71.058594 L 280.660156 68.308594 L 275.269531 70.011719 Z M 200.964844 93.449219 L 195.570312 95.148438 L 196.4375 97.894531 L 201.828125 96.195312 Z M 189.582031 97.039062 L 184.1875 98.742188 L 185.050781 101.488281 L 190.445312 99.785156 Z M 264.75 76.351562 L 270.140625 74.648438 L 269.277344 71.898438 L 263.882812 73.601562 L 264.75 76.351562 " fill-opacity="1" fill-rule="nonzero"/><g clip-path="url(#572218ec0c)"><path fill="rgb(33, 190, 33)" d="M 111.925781 155.953125 C 113.847656 153.820312 115.890625 152.105469 118.046875 150.957031 C 123.699219 147.464844 130.289062 145.316406 137.398438 145.007812 C 137.816406 144.988281 138.230469 144.992188 138.648438 144.984375 C 139.21875 144.945312 139.796875 144.90625 140.375 144.878906 C 150.722656 144.433594 160.492188 147.019531 168.835938 151.851562 C 173.839844 147.742188 180.167969 145.160156 187.132812 144.859375 C 189.328125 144.761719 191.484375 144.902344 193.570312 145.25 C 196.726562 120.394531 217.390625 100.6875 243.257812 99.566406 C 256.398438 99 268.617188 103.328125 278.15625 110.9375 C 288.175781 102.429688 300.992188 97.066406 315.136719 96.457031 C 340.277344 95.367188 362.535156 109.589844 372.910156 130.859375 C 364.476562 105.53125 340.070312 87.773438 312.089844 88.984375 C 297.945312 89.597656 285.128906 94.960938 275.109375 103.464844 C 265.570312 95.859375 253.351562 91.53125 240.210938 92.097656 C 214.34375 93.214844 193.675781 112.925781 190.523438 137.78125 C 188.433594 137.433594 186.28125 137.292969 184.085938 137.390625 C 177.121094 137.691406 170.792969 140.273438 165.789062 144.382812 C 157.445312 139.550781 147.671875 136.960938 137.328125 137.410156 C 136.75 137.433594 136.171875 137.472656 135.601562 137.519531 C 135.183594 137.523438 134.769531 137.523438 134.351562 137.539062 C 127.242188 137.847656 120.648438 139.992188 114.996094 143.488281 C 112.84375 144.636719 110.800781 146.351562 108.878906 148.484375 C 98.539062 159.953125 98.175781 175.269531 104.628906 186.996094 C 101.773438 176.71875 103.671875 165.109375 111.925781 155.953125 " fill-opacity="1" fill-rule="nonzero"/></g><path fill="rgb(33, 190, 33)" d="M 27.25 89.339844 C 41.695312 39.492188 93.800781 10.792969 143.625 25.25 C 152.773438 27.90625 161.207031 31.832031 168.792969 36.78125 C 158.210938 26.652344 145.109375 18.855469 130.070312 14.496094 C 80.246094 0.0390625 28.144531 28.734375 13.695312 78.585938 C 1.902344 119.285156 18.855469 161.5 52.585938 183.496094 C 28.101562 160.066406 17.160156 124.152344 27.25 89.339844 " fill-opacity="1" fill-rule="nonzero"/></svg>